<?xml version="1.0" encoding="UTF-8"?>
<svg id="Layer_2" data-name="Layer 2" xmlns="http://www.w3.org/2000/svg" viewBox="0 0 537.77 199.22">
  <defs>
    <style>
      .cls-1 {
        fill: #010101;
      }
    </style>
  </defs>
  <g id="Layer_2-2" data-name="Layer 2">
    <g id="Layer_1-2" data-name="Layer 1-2">
      <path class="cls-1" d="m411.24,146.47c0-6.1.9-15.34-.23-24.31-1.38-10.96-.36-21.8-.38-32.67-.01-9.93-2.36-19.6-2.37-29.48,0-1.48-.53-1.91-2.01-2.04-6.67-.57-13.33-1.28-20-1.96-12.84-1.32-25.69-2.56-38.51-4.03-6.78-.78-7.12-.45-7.53,6.54-1.01,17.33-11.04,28.95-27.88,34.61-4.59,1.54-9.39,2.05-13.94,3.71-1.88.69-2.11.52-1.38,2.69,3.23,9.62,8.25,18.42,13.42,26.93,6.07,9.99,10.35,20.57,14.1,31.45,3.27,9.49,2.08,21.93-6.83,28.16-4.16,2.91-15.58,2.3-19.79-.86-6.09-4.57-7.8-11.05-8.56-17.89-.98-8.8-5.37-16.17-9.75-23.33-8.7-14.21-18.17-27.93-27.24-41.91-.64-.98-.93-2.28-2.32-1.92-1.3.34-.76,1.69-.72,2.55.64,12.25-1.35,24.35-2.17,36.5-.63,9.22-2.51,18.36-3.82,27.53-.65,4.49,1.14,8.76,1.09,13.27-.08,6.74-5.03,16.17-13.21,18.59-7.12,2.11-14.65-1.3-19.87-8.51-5.36-7.41-3.19-15.68-2.63-23.42.56-7.74,2.38-15.5,2.44-23.29.08-9.77.86-19.52,1.41-29.23.67-11.83.53-23.71,1.78-35.51.28-2.65-.46-4.95-1.97-6.84-13.14-16.41-8.35-36.85,4.7-49.96C231.36,7.49,248.61.08,268.92.03c7.56-.02,15.11-.36,22.57,1.59,11.48,2.99,21.44,8.74,30.17,16.57,2.46,2.21,4.82,2.35,7,.79,2.5-1.8,5.07-1.85,7.87-2,11.45-.61,22.85.58,34.23,1.2,16.69.91,33.31,2.99,50.02,4.1,20.28,1.34,40.52,1.18,60.72.44,12.48-.45,25.03-.8,37.53-1.42,9.96-.49,12.86,1.51,17.55,11.48,4.82,10.24-5.91,24.31-16.18,24.57-24.15.59-48.29,2.19-72.47,1.86-3.07-.04-3.54,1.25-3.47,3.88.6,22.57,1.93,45.12,2.03,67.72.06,12.93,0,25.92.81,38.85.34,5.32.62,10.63-1.25,15.64-2.84,7.64-14.24,11.83-21.9,8.71-7.15-2.91-9.31-8.59-11.14-15.56-2.56-9.7-.98-19.34-1.77-32v.02Zm-139.25-110.46c-9.76-.72-18.83,2.76-27.26,8.2-5.94,3.83-5.9,7.67-.2,11.65,5.63,3.93,11.81,6.09,18.61,7.32,12.69,2.29,24.86,1.12,36.84-3.4,2.83-1.07,4.06-2.97,3.17-5.63-.74-2.21-1.02-4.58-2.73-6.57-7.4-8.61-16.84-11.98-28.44-11.57h.01Z"/>
      <path class="cls-1" d="m104.51,24.86c12.14.78,21.38,6.07,27.39,17.03,8.71,15.91,14.52,32.97,20.25,50.05,1.26,3.74,2.62,5.23,6.78,4.92,6.21-.46,12.57-.69,18.65,1.17,5.54,1.7,9.6,5.36,11.73,10.76,1.92,4.86,1.45,10.04.88,15.08-.46,4.05-9.17,9.68-15.43,10.1-.17.01-.33,0-.5,0-3.47.09-8.26-1.18-10.09.6-2.44,2.38-.72,7.2-.82,10.97-.34,12.97-.73,25.92-3,38.74-.91,5.14-7.79,12.04-12.91,12.68-16.73,2.07-22.76-10.28-20.75-23.84,1.93-13.04,2.98-26.22,2.43-39.47-.09-2.08-1.16-2.52-2.83-2.56-1.83-.05-3.66-.12-5.49-.1-16.5.23-32.9-1.09-49.27-3.01-9.32-1.09-12.62.9-16.09,10.82-3,8.57-7.79,16.44-10.61,24.87-3.06,9.16-9.55,15.88-13.49,24.23-2.84,6.03-12.7,7.79-18.6,6.95-6.95-1-11.53-6.63-12.41-13.65-1.09-8.75.31-16.18,6.97-22.95,6.08-6.17,8.04-15.21,12.35-22.71,1.45-2.53,4.02-5.15,3.93-7.65-.12-3.18-4.5-1.26-6.62-2.95-8.06-6.43-12.08-14.9-4.29-25.24,5.61-7.44,12.81-7.27,20.07-8.66,3.19-.61,6.48-.85,9.73-1,2.09-.1,2.63-1.5,3.46-2.94,6.23-10.74,12.54-21.43,18.8-32.15,5.58-9.54,12.56-17.87,21.55-24.33,5.52-3.97,11.53-5.61,18.23-5.77h0Zm13.25,69.81c-4.86-8.71-7.95-17.79-11.5-26.69-1.36-3.41-6.42-4.5-7.84-1.75-4.32,8.36-10.34,15.69-14.29,24.28-1.27,2.76-.09,3.34,1.95,3.44,10.34.48,20.66,1.85,31.68.72Z"/>
    </g>
  </g>
</svg>